<svg width="259" height="228" xmlns="http://www.w3.org/2000/svg">
 <!-- Created with Method Draw - http://github.com/duopixel/Method-Draw/ -->

  <ellipse stroke="#000" ry="31.5" rx="40.499997" id="svg_2" cy="114.953125" cx="212.25" stroke-width="1.5" fill="#8CD79F"/>
  <path transform="rotate(-25 36.49999999999991,189) " stroke="#000" id="svg_9" d="m58.88194,176.49999l0,0c5.8642,0 10.61806,5.59645 10.61806,12.5c0,6.90356 -4.75386,12.5 -10.61806,12.5l-44.76389,0l0,0c-5.86419,0 -10.61805,-5.59644 -10.61805,-12.5l55.38194,-12.5z" stroke-width="1.5" fill="#8CD79F"/>
  <path transform="rotate(-135 179.5,183) " stroke="#000" id="svg_8" d="m201.88194,170.499993l0,0c5.8642,0 10.61806,5.59645 10.61806,12.5c0,6.90356 -4.75386,12.5 -10.61806,12.5l-44.76389,0l0,0c-5.86419,0 -10.61805,-5.59644 -10.61805,-12.5l55.38194,-12.5z" stroke-width="1.5" fill="#8CD79F"/>
  <path transform="rotate(-121 49.02499389648437,36.16647338867187) " id="svg_15" d="m21.55625,24.66647l54.93749,0l0,0c7.19697,0 13.03126,5.14872 13.03126,11.49999l-67.96875,11.5l0,0c-7.19696,0 -13.03125,-5.14873 -13.03125,-11.5c0,-6.35127 5.83429,-11.49999 13.03125,-11.49999z" stroke-opacity="null" stroke-width="1.5" stroke="#000" fill="#8CD79F"/>
  <path transform="rotate(-28 178.0249938964844,50.1664733886719) " id="svg_16" d="m150.55625,38.66647l54.93749,0l0,0c7.19697,0 13.03126,5.14872 13.03126,11.49999l-67.96875,11.5l0,0c-7.19696,0 -13.03125,-5.14873 -13.03125,-11.5c0,-6.35127 5.83429,-11.49999 13.03125,-11.49999z" stroke-width="1.5" stroke="#000" fill="#8CD79F"/>
  <ellipse transform="rotate(-90 102.75000000000001,109.953125) " stroke="url(#gradbox_stroke)" ry="99.500003" rx="78.499997" id="svg_1" cy="109.953122" cx="102.750003" stroke-width="0" fill="#482816"/>
  <polyline stroke="#000" stroke-linecap="round" id="svg_7" points="10.75,64.453125 10.75,64.453125 " fill-opacity="null" stroke-opacity="null" stroke-width="1.5" fill="none"/>

</svg>