<svg width="1024" height="438" xmlns="http://www.w3.org/2000/svg">
 <!-- Created with Method Draw - http://github.com/duopixel/Method-Draw/ -->

 <g>
  <title>background</title>
  <rect fill="none" id="canvas_background" height="440" width="1026" y="-1" x="-1"/>
  <g display="none" overflow="visible" y="0" x="0" height="100%" width="100%" id="canvasGrid">
   <rect fill="url(#gridpattern)" stroke-width="0" y="0" x="0" height="100%" width="100%"/>
  </g>
 </g>
 <g>
  <title>Layer 1</title>
  <rect stroke="#191919" rx="34" id="svg_62" height="192.000016" width="276.500005" y="205.249881" x="589.749875" stroke-width="1.5" fill="#b2b2b2"/>
  <rect stroke="#191919" rx="34" id="svg_22" height="174.50003" width="276.500005" y="153.74991" x="296.75" stroke-width="1.5" fill="#b2b2b2"/>
  <ellipse stroke="#191919" ry="51.500001" rx="139.999994" id="svg_23" cy="233.453129" cx="726.499736" stroke-width="1.5" fill="#b2b2b2"/>
  <rect rx="14" stroke="#b2b2b2" transform="rotate(11 559.3328857421878,252.56741333007804) " id="svg_35" height="26.499983" width="76.058656" y="239.317434" x="521.303501" fill="#e5e5e5"/>
  <rect stroke="#b2b2b2" transform="rotate(171 385.33291625976557,276.5674133300781) " id="svg_65" height="26.499983" width="76.058656" y="263.317423" x="347.303589" fill="#e5e5e5"/>
  <rect stroke="#191919" rx="34" id="svg_2" height="192.000016" width="276.500005" y="229.74987" x="86.250114" stroke-width="1.5" fill="#b2b2b2"/>
  <ellipse stroke="#191919" ry="51.500001" rx="139.999994" id="svg_1" cy="246.453119" cx="221.999987" stroke-width="1.5" fill="#b2b2b2"/>
  <rect id="svg_5" height="8" width="0" y="214.453125" x="495.5" fill-opacity="null" stroke-opacity="null" stroke-width="1.5" stroke="#000" fill="#fff"/>
  <path id="svg_8" d="m226.999995,229.999995" opacity="0.5" fill-opacity="null" stroke-opacity="null" stroke-width="1.5" stroke="#000" fill="#fff"/>
  <path id="svg_11" d="m-154,-43c-0.5,-0.54688 114.5,309.45313 115,309" opacity="0.5" fill-opacity="null" stroke-opacity="null" stroke-width="1.5" stroke="#000" fill="#fff"/>
  <ellipse stroke="#000" ry="44.499977" rx="129.999934" id="svg_13" cy="245.499861" cx="223.499875" stroke-width="1.5" fill="#047ef7"/>
  <line stroke="#000" style="vector-effect: non-scaling-stroke;" stroke-linecap="null" stroke-linejoin="null" id="svg_14" y2="408.999784" x2="218.499886" y1="278.999852" x1="219.499885" fill-opacity="null" stroke-opacity="null" stroke-width="1.5" fill="none"/>
  <line stroke-linecap="null" stroke-linejoin="null" id="svg_15" y2="409.499783" x2="250.999868" y1="276.999853" x1="251.499868" fill-opacity="null" stroke-opacity="null" stroke-width="1.5" stroke="#000" fill="none"/>
  <line stroke="#000" stroke-linecap="null" stroke-linejoin="null" id="svg_16" y2="303.49984" x2="252.499866" y1="303.99984" x1="218.999885" fill-opacity="null" stroke-opacity="null" stroke-width="1.5" fill="none"/>
  <line stroke="#000" stroke-linecap="null" stroke-linejoin="null" id="svg_17" y2="324.499829" x2="251.999867" y1="324.499829" x1="217.499886" fill-opacity="null" stroke-opacity="null" stroke-width="1.5" fill="none"/>
  <line stroke="#000" stroke-linecap="null" stroke-linejoin="null" id="svg_18" y2="345.999818" x2="250.999868" y1="345.999818" x1="217.999884" fill-opacity="null" stroke-opacity="null" stroke-width="1.5" fill="none"/>
  <line stroke-linecap="null" stroke-linejoin="null" id="svg_19" y2="366.499807" x2="249.999869" y1="366.499807" x1="218.499886" fill-opacity="null" stroke-opacity="null" stroke-width="1.5" stroke="#000" fill="none"/>
  <line stroke="#000" stroke-linecap="null" stroke-linejoin="null" id="svg_20" y2="389.999795" x2="251.999867" y1="389.499795" x1="217.499886" fill-opacity="null" stroke-opacity="null" stroke-width="1.5" fill="none"/>
  <ellipse stroke="#000" ry="44.499977" rx="129.999934" id="svg_25" cy="231.499867" cx="727.499633" stroke-width="1.5" fill="#047ef7"/>
  <ellipse transform="rotate(27 428.9997863769532,268.9999999999999) " ry="15" rx="15.499993" id="svg_33" cy="268.999995" cx="428.999795" stroke="#e5e5e5" fill="#e5e5e5"/>
  <rect stroke="#191919" id="svg_37" height="150.49993" width="291" y="253.999879" x="438.999799" stroke-width="1.5" fill="#666666"/>
  <path id="svg_24" d="m217,220" opacity="0.5" fill-opacity="null" stroke-opacity="null" stroke-width="1.5" stroke="#000" fill="#fff"/>
  <ellipse stroke="#191919" ry="51.500001" rx="139.999994" id="svg_63" cy="174.953156" cx="433.999872" stroke-width="1.5" fill="#b2b2b2"/>
  <rect id="svg_38" height="0.5" width="0" y="227.499892" x="640.999694" stroke-width="1.5" stroke="#191919" fill="#b2b2b2"/>
  <rect stroke="#191919" style="vector-effect: non-scaling-stroke;" transform="translate(35.49998474121094,-107.99994659423828) scale(1.0105262994766235,1) translate(-56.49997329711914,-365.49981689453125) " rx="9" id="svg_42" height="29.999984" width="47.499977" y="365.499827" x="8.999996" fill-opacity="null" stroke-opacity="null" stroke-width="1.5" fill="#b2b2b2"/>
  <rect stroke="#b2b2b2" rx="26" id="svg_43" height="157.999948" width="30.999984" y="234.499875" x="17.499993" fill-opacity="null" stroke-width="1.5" fill="#b2b2b2"/>
  <rect stroke="#b2b2b2" rx="21" id="svg_45" height="25.499988" width="100.999951" y="233.499889" x="21.499995" fill-opacity="null" stroke-width="1.5" fill="#b2b2b2"/>
  <rect stroke="#b2b2b2" rx="5" id="svg_46" height="32.999979" width="40.99998" y="359.999832" x="7.499996" fill-opacity="null" stroke-width="1.5" fill="#b2b2b2"/>
  <rect id="svg_47" height="0" width="2.999999" y="385.499816" x="34.499984" fill-opacity="null" stroke-width="1.5" stroke="#b2b2b2" fill="#b2b2b2"/>
  <rect id="svg_48" height="0.5" width="0" y="389.499814" x="58.999972" fill-opacity="null" stroke-width="1.5" stroke="#b2b2b2" fill="#b2b2b2"/>
  <rect stroke="#b2b2b2" id="svg_49" height="24.999988" width="26.499989" y="233.499887" x="101.49995" fill-opacity="null" stroke-opacity="null" stroke-width="1.5" fill="#b2b2b2"/>
  <ellipse stroke="#000" ry="13.999992" rx="6.999997" id="svg_50" cy="246.999882" cx="127.499939" stroke-opacity="null" stroke-width="1.5" fill="#b2b2b2"/>
  <path d="m129.999939,243.999878c0,0 1,0 2,0c1.5,0 3.093002,0.346268 4,1c0.573639,0.413452 1.308655,1.038055 1.5,1.5c0.270599,0.653275 0.308655,0.538055 0.5,1c0.270599,0.653275 0.5,1 0.5,1c0.5,0.5 0.5,0.5 1,1c0,0 0.5,0.5 1,1c0,0 0.146454,0.646454 0.5,1c0.353546,0.353546 0.5,0.5 0.5,0.5c0.5,0.5 0.308655,0.538055 0.5,1c0.270599,0.653275 0.5,1.5 1,2c0.5,0.5 0.308655,1.038055 0.5,1.5c0.270599,0.65329 0.5,0.5 0.5,1c0,0 0.499985,0 0.499985,0.5c0,0 -0.353546,0.146454 0,0.5c0.353546,0.353546 0.5,0.5 0.5,0.5c0,0 0,0 0,0.5c0,0 0,0.5 0,0.5c0,0 0,0 0,0.5c0,0 0,0 0.5,0.5c0,0 0,0.5 0.5,0.5c0,0 0,0 0,0.5c0,0 0,0 0.5,0.5c0,0 0,0 0,0c0,0 0,0.5 0,0.5c0,0 0,0 -0.5,0c0,0 0,0 0,0c-0.5,-0.5 -0.346725,-0.729401 -1,-1c-0.461945,-0.191345 -1.34671,-0.229401 -1.999985,-0.5c-0.923874,-0.38269 -1.5,-0.5 -2.5,-0.5c-0.5,0 -1,0 -1.5,0c0,0 -0.5,0 -0.5,0c0,0.5 0,1 0,1c-0.5,0.5 -0.5,0.5 -0.5,1c0,0 0,0 0,0c-0.5,0 -0.5,0.5 -0.5,0.5c0,0 -0.5,0 -1,0.5c0,0 -0.5,0 -0.5,0c0,0 -0.5,0 -0.5,0c-0.5,0 -1,0 -1,0c-0.5,0 -1,0 -1.5,0c0,0 -0.346725,0.229401 -1,0.5c-0.461945,0.191345 -0.5,0 -1,0c0,0 -0.146454,0.353546 -0.5,0c-0.353546,-0.353546 0,-0.5 0,-1c0,0 0.353546,-0.646454 0,-1c-0.353546,-0.353546 -0.5,0 -0.5,-0.5c0,-0.5 0,-0.5 0,-1c0,-0.5 -0.146454,-0.146454 -0.5,-0.5c-0.353546,-0.353546 0,-0.5 0,-1c0,0 -0.5,0 -0.5,0c0,0 0,0 0,0c0,-0.5 -0.5,-0.5 -0.5,-1c0,-0.5 -0.5,-0.5 -0.5,-0.5c0,-0.5 0,-0.5 0,-1c0,-0.5 0,-0.5 -0.5,-1c0,0 0,-0.5 0,-0.5c0,0 -0.5,0 -0.5,0c-0.5,0 -0.5,0 -1,0c0,0 0,0 0,0c-0.5,0 -0.5,0 -0.5,0c0,0 -0.5,0 -0.5,0c0,0 0,0 -0.5,0c0,0 0,0 -0.5,0c0,0 0,0 -0.5,0c0,0 0,0 0,0c0,0 -0.5,0 -0.5,0.5c0,0 0,0 0,0.5c0,0 0.5,0 0.5,0.5c0,0 0,0 0.5,0c0,0 0.5,0 1,0c0,0 0.5,0 1,0c0,0 0,0 0,0c0,0 0,0.5 0,0.5c0,0 0,0.5 0,0.5c0.5,0 0.5,0.5 0.5,0.5c0,0 0,0.5 0,0.5c0,0 0,-0.5 0,-0.5c0,0 -0.5,0 -0.5,0c0,-0.5 0,-0.5 0,-0.5c0,0 0,-0.5 0,-0.5c0,0 -0.5,0 -0.5,-0.5c0,0 0,0 -0.5,0c0,0 0,0 0,-0.5c0,0 -0.5,0 -0.5,0c0,0 -0.5,-0.5 -0.5,-0.5c0,0 -0.5,0 -0.5,0c0,-0.5 0,-0.5 -0.5,-0.5c0,0 0,0.5 0,0.5c0.5,0.5 0.308655,0.538055 0.5,1c0.270599,0.65329 0.5,0.5 0.5,0.5c0,0 0,0 0.5,0c0,0 0,0.5 0.5,0.5c0,0 0.5,0 0.5,0c0.5,0 0.5,0 0.5,0c0.5,0 0.5,0 0.5,0c0,0 0.5,0 0.5,0c0,0 0,0.5 0,0.5c0,0 0.146446,-0.353546 0.5,0c0.353554,0.353546 0,0.5 0,0.5c0,0 0,0 0,0c0,0 0,0.5 0,0.5c0,0 0,-0.5 -0.5,-1c0,0 -0.5,-0.5 -0.5,-0.5c-0.5,0 -0.5,-0.5 -0.5,-0.5c-0.5,0 -0.5,-0.5 -0.5,-0.5c0,0 -0.5,-0.5 -0.5,-0.5c0,0 0,-0.5 -0.5,-0.5c0,0 0.353554,-0.146454 0,-0.5c-0.353554,-0.353546 -0.308655,-0.038055 -0.5,-0.5c-0.270599,-0.653275 -0.5,-0.5 -1,-0.5c0,0 0,-0.5 -0.5,-0.5c0,0 0,0 0,0c0,0 0,-0.5 0,-0.5c0,0 0,-0.5 0,-0.5c0,0 0,0 0,-0.5c0,0 0,0 0,-0.5c0,0 0,-0.5 0,-0.5c0,0 0,-0.5 0,-0.5c0,0 0,0 0,-0.5c0,0 -0.5,0 -0.5,0c0,0 0,0 0,0c0,-0.5 0,-0.5 -0.5,-0.5c0,0 0,-0.5 0,-0.5c0,-0.5 0,-0.5 0,-0.5c0,0 0,-0.5 0,-0.5c0,0 0,-0.5 0,-0.5c0,0 0,0 0,-0.5c0,0 0,0 0,-0.5c0,0 0,0 0,0c0,0 0,0 0.5,0c0,0 0,0 0,0c0.5,0 0.5,0 0.5,0c0.5,0 0.5,0 0.5,0c0.5,0 0.5,0 1,0c0,0 0.5,0 0.5,0c0.5,0 0.5,-0.5 0.5,-0.5c0,0 0.5,0 0.5,0c0,-0.5 0,-0.5 0,-0.5c0,0 -0.353554,-0.146454 0,-0.5c0.353554,-0.353546 0.5,0 0.5,0c0,0 0.5,0 0.5,0c0,0 0.5,-0.5 0.5,-0.5c0,0 0.5,0 0.5,0c0,0 0.5,0 0.5,0c0,0 0,0 0.5,0c0,0 0,0 0.5,-0.5c0,0 0,0 0,0c0.5,0 0.5,0 0.5,0c0,0 0,0 0.5,0l0,0" id="svg_52" stroke-width="1.5" stroke="#007fff" fill="#047ef7"/>
  <rect id="svg_54" height="51.499975" width="43.499979" y="351.999832" x="557.999732" stroke-width="1.5" stroke="#191919" fill="#daeaea"/>
  <rect stroke="#191919" id="svg_58" height="42.99998" width="22.999989" y="281.999865" x="632.499698" stroke-width="1.5" fill="#daeaea"/>
  <rect stroke="#191919" id="svg_59" height="41.499978" width="22.499989" y="283.499867" x="671.49968" stroke-width="1.5" fill="#daeaea"/>
  <line stroke-linecap="null" stroke-linejoin="null" id="svg_60" y2="405.999806" x2="580.499723" y1="352.499832" x1="579.999723" stroke-width="1.5" stroke="#191919" fill="none"/>
  <rect stroke="#191919" id="svg_61" height="10.499995" width="306.499876" y="241.999885" x="430.999773" stroke-opacity="null" stroke-width="1.5" fill="#7f7f7f"/>
  <ellipse stroke="#000" ry="44.499977" rx="129.999934" id="svg_64" cy="172.999895" cx="433.49976" stroke-width="1.5" fill="#047ef7"/>
  <rect stroke="#191919" id="svg_56" height="42.999981" width="21.99999" y="283.749851" x="504.999998" stroke-width="1.5" fill="#daeaea"/>
  <rect id="svg_55" height="44.499979" width="22.999989" y="282.999865" x="461.99978" stroke-opacity="null" stroke-width="1.5" stroke="#191919" fill="#daeaea"/>
  <ellipse stroke="#191919" ry="18.749991" rx="15.749989" id="svg_66" cy="368.249827" cx="848.749604" stroke-width="1.5" fill="#b2b2b2"/>
  <rect stroke="#191919" rx="15" id="svg_68" height="33.499984" width="84.499963" y="350.999833" x="838.999603" fill-opacity="null" stroke-opacity="null" stroke-width="1.5" fill="#b2b2b2"/>
  <rect stroke="#191919" rx="18" id="svg_70" height="31.999976" width="105.999949" y="364.999834" x="901.49957" fill-opacity="null" stroke-opacity="null" stroke-width="1.5" fill="#b2b2b2"/>
 </g>
</svg>