<svg width="580" height="400" xmlns="http://www.w3.org/2000/svg">
 <!-- Created with Method Draw - http://github.com/duopixel/Method-Draw/ -->
 <g>
  <title>background</title>
  <rect fill="none" id="canvas_background" height="402" width="582" y="-1" x="-1"/>
 </g>
 <g>
  <title>Layer 1</title>
  <path d="m62.5,103.453125c0,0 1,0 1,0c0,0 1,0 1,0c0,0 1,0 1,0c0,0 0.292892,0.707108 1,0c0.707108,-0.707108 0,-1 0,-1c0,0 0,0 0,0c-1,-1 -1,-1 -1,-1c0,0 -1,0 -1,0c0,0 0,0 -1,-1c0,0 0,0 0,0c0,0 0,0 0,0c0,-1 0,-1 0,-1c0,0 0,-1 0,-1c-1,0 -1,0 -1,0c-1,0 -1,0 -1,0c0,0 -1,1 -1,1c0,0 0,0 0,0l0,1" id="svg_1" stroke-width="1.5" stroke="#000" fill="#D3BEE7"/>
  <path d="m87.5,114.453125c0,0 0,1 0,2c0,0 -0.382683,1.076118 0,2c0.541199,1.306564 1,2 1,2c0,1 1,2 1,2c0,0 0,0 0,0c0,0 1,1 1,1c0,0 0,0 1,0c0,0 0,0 0,0c0,-1 0,-1 0,-2c0,-1 0,-1 0,-2c0,0 -1,0 -1,-1c0,0 -1,0 -1,-1c0,0 0,0 0,0c0,-1 0,-1 0,-1c0,0 0,0 -1,0c0,0 0,0 0,0l-1,0" id="svg_2" stroke-width="1.5" stroke="#000" fill="#FFDCEC"/>
  <path d="m136.5,136.453125c0,1 0,2 0,5c0,1 0,3 0,4c0,2 0,3 0,4c0,1 0,2 0,2c0,0 0.076126,0.61731 1,1c1.306564,0.541199 1.693436,1.458801 3,2c0.923874,0.38269 1,1 2,1c0,0 0,0 0,0c0,0 0,-1 0,-3c0,-2 -1.2565,-5.796997 -2,-7c-1.662506,-2.689987 -1.458801,-3.693436 -2,-5c-0.38269,-0.923874 0,-1 0,-1c0,0 0,0 -1,0c0,0 0,0 0,0c-1,0 -1,0 -1,0l0,0l0,0" id="svg_3" stroke-width="1.5" stroke="#000" fill="#535F75"/>
  <path d="m232.5,148.453125c0,1 0,2 0,4c0,1 0,1 0,2c0,0 0,1 0,1c1,1 1,1 2,1c0,0 1,0 2,0c1,0 1.823746,-1.486252 4,-2c0.973251,-0.229752 2.458801,-0.693436 3,-2c0.38269,-0.923874 0,-2 0,-2c0,-1 0,-1 0,-1c-1,0 -2,0 -3,0c-1,0 -2,0 -3,0c0,0 -1,0 -2,0c-1,0 -2,-1 -2,-1c-1,0 -2,0 -2,0c-1,0 -1,0 -1,0l-1,0l0,0" id="svg_4" stroke-width="1.5" stroke="#000" fill="#FFE2FF"/>
  <path d="m202.5,73.453125c0,0 0,1 0,4c0,1 0,4 0,6c0,1 0,1 0,2c0,0 0.292892,-0.707108 1,0c0.707108,0.707108 0,1 1,1c0,0 0.61731,-0.076118 1,-1c0.541199,-1.306564 1.486252,-2.823746 2,-5c0.459503,-1.946495 0,-3 0,-4c0,-1 0,-1 0,-1c0,-1 -1,-1 -2,-1c0,0 -1,0 -2,0c-1,0 -1,0 -2,0c0,0 0,-1 0,-1l0,0l0,0" id="svg_5" stroke-width="1.5" stroke="#000" fill="#B6C7EA"/>
  <path d="m141.5,62.453125c0,1 0,3 0,6c0,1 0,2 0,2c0,0 0,0 1,0c0,0 0,0 1,0c0,0 0,0 0,0c0,0 1,0 1,-1c0,0 0,-1 0,-1c0,-1 0,-1 0,-1c0,0 0,-1 0,-1c0,0 0,-1 0,-1c0,0 0.707108,-0.292892 0,-1c-0.707108,-0.707108 -1,-1 -2,-1c0,0 0,0 0,0c-1,0 -1,0 -1,0l0,0" id="svg_6" stroke-width="1.5" stroke="#000" fill="#B8874D"/>
  <path d="m184.5,121.453125c0,0 0.902115,1.824432 -1,3c-0.850647,0.525734 -2,1 -2,1c0,1 0,2 1,3c1,1 1.292892,1.292892 2,2c0.707108,0.707108 1,0 2,1c0,0 1,0 2,0c1,0 1,0 2,0c0,0 0,0 0,-1c0,-1 0,-1 0,-2c0,-1 0.38269,-1.076118 0,-2c-0.541199,-1.306564 -0.292892,-1.292892 -1,-2c-0.707108,-0.707108 -1.292892,-0.292892 -2,-1c-0.707108,-0.707108 -1,0 -1,-1c0,0 0,0 0,0c0,0 -1,0 -1,0c0,0 0,0 -1,0l0,0" id="svg_7" stroke-width="1.5" stroke="#000" fill="#AF84A3"/>
  <path stroke="#000" d="m354.5,96.453125c0,1 0,2 0,3c0,2 0,3 0,3c0,1 0,1 1,1c0,0 0,1 0,1c1,0 1,0 1,0c0,0 1,0 1,0c0,0 1,0 1,0c0,0 -0.707092,-0.292892 0,-1c0.707092,-0.707108 1,0 1,-1c0,0 0,-1 0,-1c0,-1 0.707092,-1.292892 0,-2c-0.707092,-0.707108 -1,0 -1,0c-1,0 -1,-1 -2,-1c-1,0 -1,0 -2,-1c0,0 0,0 0,0c-1,0 -1,0 -1,0l0,0" id="svg_8" stroke-width="1.5" fill="#B1FFFF"/>
  <path d="m298.5,72.453125c0,1 0,2 0,5c0,4 0,6 0,7c0,1 0,1 0,2c0,0 1,0 1,0c0,0 0,0 1,0c0,0 0,0 1,-1c0,0 0.458801,-1.693436 1,-3c0.765381,-1.847755 0,-3 0,-3c0,-1 0,-1 0,-1c0,-1 0,-1 0,-1c-1,0 -2,0 -2,0l0,0" id="svg_9" stroke-width="1.5" stroke="#000" fill="#E6C36A"/>
  <path d="m424.5,91.453125c0,0 0,2 0,4c0,2 0,4 0,6c0,1 0,2 0,3c0,0 0,1 0,1c0,0 1,0 1,0c1,0 0.292908,-0.292892 1,-1c0.707092,-0.707108 0.692535,-1.186005 2,-3c0.826904,-1.14727 1,-3 1,-4c0,-1 0,-1 0,-1c-1,0 -1,0 -1,0c-1,0 -1,0 -2,0c0,0 -1,0 -2,-1c0,0 0,0 0,0c0,-1 -0.292908,-1.292892 -1,-2c-0.707092,-0.707108 -1,0 -1,-1l0,0l0,0" id="svg_10" stroke-width="1.5" stroke="#000" fill="#9A8AAB"/>
  <path d="m527.5,78.453125c0,0 0,1 0,4c0,2 0,4 0,5c0,1 0,1 0,2c0,0 0.69342,0.458801 2,1c1.847778,0.765366 3,0 4,0c0,0 1,0 1,0c1,0 1,0 1,-1c0,-1 0,-2 0,-3c0,-2 -0.458801,-2.693436 -1,-4c-0.38269,-0.923882 -1.292908,-1.292892 -2,-2c-0.707092,-0.707108 -1,-2 -1,-3c0,-1 0,-1 -1,-1c0,0 0.30658,-0.458801 -1,-1c-0.923889,-0.382683 -1,0 -2,0l0,0" id="svg_11" stroke-width="1.5" stroke="#000" fill="#4C261D"/>
  <path d="m452.5,126.453125c0,1 0,3 0,5c0,3 0,6 0,9c0,3 -0.38269,4.076126 0,5c0.541199,1.306564 1,1 1,1c1,0 1,0 1,0c1,0 1,-1 1,-3c0,-3 0,-5 0,-6c0,-1 -0.149353,-1.474274 -1,-2c-1.9021,-1.175568 -2,-2 -4,-4c0,0 -1.292908,-1.292892 -2,-2c-0.707092,-0.707108 -1,0 -1,0l0,0" id="svg_12" stroke-width="1.5" stroke="#000" fill="#FFAC8D"/>
  <path d="m343.5,165.453125c0,0 0,3 0,6c0,2 0,7 0,8c0,2 1,3 1,3c0,0 1,0 1,0c1,0 3,0 4,0c1,0 2,0 3,0c1,0 1.917603,-0.386871 3,-3c0.38269,-0.923874 1,-3 1,-5c0,-2 0.765381,-3.152237 0,-5c-0.541199,-1.306564 -2,-2 -3,-2c-1,0 -1,-1 -2,-1c-1,0 -2,-1 -2,-1c-1,-1 -2,-1 -2,-1c0,0 0,0 0,0c-1,-1 -1,-1 -1,-1c0,0 0,0 0,0c-1,0 -1,1 -1,1c-1,0 -1,0 -2,0c0,0 0,1 0,1c0,0 -1,0 -1,0l0,0" id="svg_13" stroke-width="1.5" stroke="#000" fill="#B1FFFF"/>
  <path d="m36.5,214.453125c0,1 0,2 0,3c0,1 0,2 0,3c0,0 0.292892,0.292892 1,1c0.707108,0.707108 0,1 1,1c0,0 0,0 1,0c0,0 0,0 1,0c0,0 0.458805,-0.693436 1,-2c0.382683,-0.923874 0,-2 0,-3c0,-1 0,-2 0,-2c1,0 1,0 1,0c0,-1 0,-1 -1,-1c0,0 -0.292892,-0.292892 -1,-1c-0.707108,-0.707108 -1,0 -1,0l-1,0" id="svg_14" stroke-opacity="null" stroke-width="1.5" stroke="#000" fill="#B8D078"/>
  <path d="m111.5,272.453125c0,0 0,2 0,3c0,2 0,3 0,4c0,1 0.458801,1.693451 1,3c0.382683,0.923889 0.292892,1.292908 1,2c0.707108,0.707092 2,0 4,0c1,0 1,0 2,0c0,0 1,0 1,0c0,-1 1,-1 1,-2c0,0 0,0 0,-1c0,-2 -0.458801,-1.693451 -1,-3c-0.382683,-0.923889 -1.292892,-1.292908 -2,-2c-0.707108,-0.707092 -1,-1 -1,-1c0,0 0,0 0,-1c0,0 -1,0 -1,0c0,0 0,0 -1,0c0,0 0,0 0,-1c0,0 -1,0 -1,0c0,0 0,0 -1,0c0,0 0,0 0,0l-1,0l0,0" id="svg_15" stroke-opacity="null" stroke-width="1.5" stroke="#000" fill="#97944B"/>
  <path d="m160.5,208.453125c0,1 0,1 0,3c0,1 0,1 0,2c0,0 1,0 1,0c2,0 3,0 4,0c1,0 2.076126,0.38269 3,0c1.306564,-0.541199 2.076126,-1.61731 3,-2c1.306564,-0.541199 1.292892,-0.292892 2,-1c0.707108,-0.707108 0,-1 0,-2c0,-1 -0.693436,-2.458801 -2,-3c-0.923874,-0.38269 -0.693436,-0.458801 -2,-1c-0.923874,-0.38269 -2,0 -2,0c0,0 -1,0 -1,0c0,0 0,0 -1,0c0,0 -1,1 -1,1c-1,0 -1,0 -1,0c0,0 -1,0 -1,1l0,0l0,0" id="svg_16" stroke-opacity="null" stroke-width="1.5" stroke="#000" fill="#A98E49"/>
  <path d="m49.5,269.453125c0,1 0,2 0,3c0,3 0,4 0,5c0,1 0,1 0,1c0,1 -0.292892,1.292908 -1,2c-0.707108,0.707092 -0.292892,0.292908 -1,1c-0.707108,0.707092 0,1 0,1c0,1 0,1 0,1c0,0 1,0 1,0c0,0 1,0 1,0c1,0 1,0 1,0c1,0 1,0 1,0c1,0 0.82375,-0.486267 3,-1c0.973248,-0.229767 2.292892,-0.292908 3,-1c0.707108,-0.707092 1,-1 1,-1c0,-1 0,-1 0,-1c0,-1 0.306564,-2.458801 -1,-3c-0.923878,-0.38269 -2,-1 -3,-2c0,0 -1,0 -1,0c0,0 -1,0 -1,-1c0,0 -1.292892,0.707092 -2,0c-0.707108,-0.707092 0,-1 -1,-1c0,0 0,0 0,-1c0,0 0,0 0,0l0,-1" id="svg_17" stroke-opacity="null" stroke-width="1.5" stroke="#000" fill="#FFF093"/>
  <path d="m216.5,298.453125c0,0 0,2 0,4c0,0 0,1 0,2c0,1 0.458801,0.693451 1,2c0.38269,0.923889 1,2 2,2c1,0 2,0 3,0c1,0 3,0 4,0c1,0 2,0 2,0c0,0 0.38269,-0.076111 0,-1c-0.541199,-1.306549 -1,-2 -2,-3c-1,-1 -0.693436,-1.458801 -2,-2c-0.923874,-0.38269 -2,0 -3,-1c0,0 -1,0 -2,-1c0,0 0,0 0,0c0,-1 -0.292892,-0.292908 -1,-1c-0.707108,-0.707092 -1,-1 -1,-1c0,0 0,0 -1,0c0,0 -1,0 -1,0l0,0l-1,0" id="svg_18" stroke-opacity="null" stroke-width="1.5" stroke="#000" fill="#7AD6CA"/>
  <path d="m280.5,218.453125c0,0 0,2 0,4c0,1 0,2 0,3c0,0 0,1 0,1c0,0 0.292908,0.292892 1,1c0.707092,0.707108 1,1 2,1c0,0 0,0 0,0c1,0 1,0 2,0c0,0 0,0 0,0c0,0 0,-1 0,-1c0,-1 0,-2 0,-2c1,-1 1,-2 1,-2c0,-1 0,-2 0,-2c0,-1 0,-1 0,-2c0,0 0,0 0,0c0,-1 0,-1 0,-1c-1,-1 -1.292908,-1.292892 -2,-2c-0.707092,-0.707108 -1.076111,0.38269 -2,0c-1.306549,-0.541199 -1,-1 -2,-1l0,0" id="svg_19" stroke-opacity="null" stroke-width="1.5" stroke="#000" fill="#9A8AAB"/>
  <path d="m61.5,53.453125c0,0 0,1 0,2c0,2 0,3 0,4c0,0 0.076122,0.617317 1,1c1.306564,0.541195 2.152245,0.234634 4,1c1.306564,0.541195 3,1 4,1c1,0 1,0 1,-1c0,0 0,0 0,-1c0,0 0.382683,-0.076122 0,-1c-0.541199,-1.306564 -2,-2 -3,-3c-1,-1 -2.292892,-1.292892 -3,-2c-0.707108,-0.707108 0,-1 0,-2c0,0 -0.707108,-1.292892 0,-2c0.707108,-0.707108 1,-1 1,-1c0,-1 0,-1 0,-1c0,0 0,0 -1,0c0,0 -1,0 -2,0l0,0l-1,0" id="svg_20" stroke-opacity="null" stroke-width="1.5" stroke="#000" fill="#619E73"/>
  <path d="m376.5,45.453125c0,0 -0.38269,2.076122 0,3c0.541199,1.306564 0.292908,2.292892 1,3c0.707092,0.707108 2.152252,0.234634 4,1c1.306549,0.541195 3,1 4,1c2,0 3,0 4,0c0,0 0.38269,-0.076122 0,-1c-0.541199,-1.306564 -2.852722,-2.173096 -4,-3c-1.813995,-1.307453 -3.149353,-2.47427 -4,-3c-1.9021,-1.175571 -1,-2 -2,-3c-1,-1 -1,-1 -1,-1c-1,0 -1,0 -1,0c-1,0 -1,0 -2,0l0,0l0,0" id="svg_21" stroke-opacity="null" stroke-width="1.5" stroke="#000" fill="#FFDFB8"/>
  <path d="m517.5,30.453125c0,0 0,2 0,4c0,3 0,5 0,5c0,1 0,1 1,1c2,0 4,0 6,0c2,0 4,-1 6,-2c0,0 1,0 1,0c0,-1 1,-1 1,-1c-1,0 -2,-1 -3,-2c-1,-1 -1.852722,-2.173096 -3,-3c-1.813965,-1.307451 -3,-1 -4,-2c0,0 -1,0 -1,-1c0,0 -1,0 -1,0c0,0 -1,0 -1,0c-1,0 -1,0 -2,0l-1,0l0,0l0,0" id="svg_22" stroke-opacity="null" stroke-width="1.5" stroke="#000" fill="#D3BEE7"/>
  <path d="m490.5,186.453125c0,0 0,1 0,4c0,1 0,5 0,6c0,1 0,1 0,2c0,0 0,0 0,1c0,0 0,0 0,0c0,0 1,0 1,0c1,1 2,1 2,1c1,0 1,0 2,0c0,0 1,0 1,0c0,-1 0,-1 0,-1c1,-1 1.173096,-1.852737 2,-3c1.307465,-1.813995 1,-3 1,-4c0,-1 0.306549,-2.458801 -1,-3c-0.923889,-0.38269 -1,-1 -2,-1c-1,0 -1,-1 -2,-1c-1,0 -1,0 -2,0c-1,0 -2,-1 -3,-1c0,0 -1,-1 -1,-1l-1,0l-1,-1l-1,0" id="svg_23" stroke-opacity="null" stroke-width="1.5" stroke="#000" fill="#FABA6F"/>
  <path d="m480.5,87.453125c0,1 0,2 0,4c0,0 0,1 1,1c0,0 1,0 2,0c2,0 4,0 6,0c1,0 2,0 2,0c1,0 1,0 1,0c0,-1 0,-2 -1,-3c-1,-1 -1,-2 -2,-3c-1,-1 -2.458801,-1.693436 -3,-3c-0.38269,-0.923882 0,-1 -1,-2c0,0 0,0 0,-1c0,0 0,0 0,0c-1,-1 -1,-1 -1,-1c-1,0 -1,0 -1,0c-1,0 -1.076111,0.617317 -2,1c-1.306549,0.541199 -2.458801,1.693436 -3,3c-0.38269,0.923882 -1,1 -1,2c0,0 0,0 0,0c0,0 0,1 0,1l0,0l0,1" id="svg_24" stroke-opacity="null" stroke-width="1.5" stroke="#000" fill="#FFDCEC"/>
  <path stroke="#000" d="m260.5,16.453125c0,0 0,1 0,3c0,1 0,2 0,3c0,0 1,1 1,1c0,0 0,0 1,0c0,0 0.292908,0.292892 1,1c0.707092,0.707108 1,0 1,0c0,0 0,1 0,2c0,1 0,3 0,3c0,1 0,1 0,1c0,0 0.076111,0.382683 1,0c1.306549,-0.541197 2.486267,-1.82375 3,-4c0.229767,-0.973249 1,-2 1,-2c0,0 1,-1 1,-1c0,-1 0,-1 0,-2c0,0 0,0 0,-1c0,-1 0,-2 0,-3c0,-1 0,-2 -1,-3c-1,-1 -2,-1 -3,-2c0,0 -1,-1 -2,-1c0,0 -1,0 -1,0c0,0 -1,0 -1,0l0,0" id="svg_25" stroke-opacity="null" stroke-width="1.5" fill="#74556D"/>
  <path d="m160.5,17.453125c0,1 0.692551,1.186007 2,3c1.653809,2.294538 3.692551,4.186007 5,6c0.826904,1.14727 1,2 2,2c0,0 0,0 1,0c0,0 0,0 0,-2c0,-1 0,-2 0,-3c0,-1 -0.61731,-2.07612 -1,-3c-0.541199,-1.306562 -2,-1 -2,-1c-1,-1 -2,-1 -2,-1c-1,0 -1,0 -2,0c0,0 0,0 -1,0c0,0 0,0 -1,0l0,0l0,0" id="svg_26" stroke-opacity="null" stroke-width="1.5" stroke="#000" fill="#A8FFE9"/>
  <path d="m316.5,285.453125c0,1 0,1 0,3c0,2 0,4 0,5c0,1 -0.38269,2.076111 0,3c0.541199,1.306549 1.292908,1.292908 2,2c0.707092,0.707092 1,1 1,1c0,0 0,0 1,0c0,0 1,0 2,0c0,0 1,-1 1,-1c1,-1 1,-2 1,-2c1,-1 1,-2 1,-3c0,0 0.38269,-0.076111 0,-1c-0.541199,-1.306549 -1,-2 -2,-2c0,0 0,-1 -1,-1c-1,0 -1,-1 -2,-1c0,0 -1,-1 -2,-1c0,0 -1,0 -1,-1c0,0 0,0 -1,0l0,0l0,0" id="svg_27" stroke-opacity="null" stroke-width="1.5" stroke="#000" fill="#B8874D"/>
  <path d="m391.5,230.453125c0,1 0,3 0,5c0,1 0,2 0,2c1,0 1,0 1,0c0,0 1,0 1,0c1,0 1.61731,-1.076126 2,-2c1.082397,-2.613129 2,-3 2,-4c0,0 0.292908,0.707108 1,0c0.707092,-0.707108 0,-1 0,-1c0,-1 0,-1 0,-2c0,0 -0.292908,0.707108 -1,0c-0.707092,-0.707108 -1,-1 -1,-1c-1,0 -1,0 -2,0c0,0 0,0 0,0c-1,0 -1,0 -1,0c0,0 -1,1 -1,1l-1,0l0,0l0,1" id="svg_28" stroke-opacity="null" stroke-width="1.5" stroke="#000" fill="#FFAAB8"/>
  <path d="m403.5,168.453125c0,1 0,2 0,4c0,3 1.458801,5.693436 2,7c0.38269,0.923874 1,2 1,2c0,0 1,0 1,0c1,0 1.292908,0.707108 2,0c0.707092,-0.707108 2.692535,-2.186005 4,-4c0.826904,-1.147263 2,-1 2,-2c0,-1 0.707092,-2.292892 0,-3c-0.707092,-0.707108 -2,-1 -2,-1c-1,0 -2,-1 -4,-1c0,0 -1,0 -1,0c-1,0 -1,-1 -1,-1c-1,0 -1,0 -1,-1c0,0 -1,0 -1,0l0,0" id="svg_29" stroke-opacity="null" stroke-width="1.5" stroke="#000" fill="#396849"/>
  <path d="m291.5,137.453125c0,0 0,0 0,2c0,2 0.292908,5.292892 1,6c0.707092,0.707108 2,1 2,1c1,0 1,0 1,0c1,0 2,0 3,0c0,0 2.173096,0.147263 3,-1c1.307465,-1.813995 1.61731,-4.076126 2,-5c0.541199,-1.306564 1,-2 1,-3c0,-1 0,-2 0,-3c0,0 -1,0 -1,0c-1,0 -1,0 -2,0c0,0 -1,0 -2,0c0,0 -1,0 -2,0c-1,0 -3,0 -3,0c-1,0 -2,0 -3,0c-1,0 -2,0 -2,0l0,0l-1,0" id="svg_30" stroke-opacity="null" stroke-width="1.5" stroke="#000" fill="#FFB27C"/>
  <path d="m336.5,36.453125c0,0 0,1 0,2c0,2 0,3 0,3c0,1 0,1 0,1c1,0 2,0 4,0c2,0 3,0 4,0c0,0 0.61731,-0.076122 1,-1c0.541199,-1.306564 1,-1 1,-2c0,-1 0.306549,-2.458805 -1,-3c-0.923889,-0.382683 -1.292908,-0.292892 -2,-1c-0.707092,-0.707108 -1.292908,-0.292892 -2,-1c-0.707092,-0.707108 -1,-1 -1,-1c0,0 -1,0 -1,0c-1,0 -1,0 -2,0c-1,0 -1,0 -3,0l-1,0" id="svg_31" stroke-opacity="null" stroke-width="1.5" stroke="#000" fill="#CE7975"/>
  <path d="m450.5,35.453125c0,1 0,2 0,4c0,3 1,4 1,6c0,1 1,1 1,1c0,0 0,0 1,0c0,0 0,0 1,0c1,0 2,0 3,0c0,0 1.458801,-0.693436 2,-2c0.765381,-1.847759 0.765381,-3.152241 0,-5c-0.541199,-1.306564 -2,-1 -3,-2c0,0 -1,-1 -1,-2c0,0 0,-2 0,-3c0,0 0,0 0,-1c0,0 0,0 -1,0l0,0" id="svg_32" stroke-opacity="null" stroke-width="1.5" stroke="#000" fill="#559E84"/>
  <path d="m535.5,160.453125c0,1 0,2 0,5c0,3 0,5 0,6c0,1 0,1 0,1c1,0 3,0 4,0c1,0 2,0 2,0c1,0 1,0 1,-1c0,-1 0,-2 0,-2c1,-1 1,-1 1,-2c0,-1 0,-3 0,-4c0,-2 -0.69342,-2.458801 -2,-3c-1.847778,-0.765366 -2,0 -3,0c0,0 -1,0 -2,0c0,0 -1,0 -2,0l-1,-1l-1,0" id="svg_33" stroke-opacity="null" stroke-width="1.5" stroke="#000" fill="#FFAC8D"/>
  <path d="m519.5,292.453125c0,1 0,2 0,2c0,3 0,4 0,8c0,4 0,6 0,7c0,2 0,3 0,5c0,3 0.486267,4.823761 1,7c0.229736,0.973236 0,2 0,2c0,0 1,0 1,0c0,0 0,0 1,0c0,0 0,-1 1,-2c1,-1 2,-2 2,-2c0,-1 1,-1 1,-1c0,0 0,0 0,0c0,-1 0,-1 0,-2c0,-1 -0.692566,-2.186005 -2,-4c-0.826904,-1.147278 -2.61731,-2.076111 -3,-3c-0.541199,-1.306549 -2,-2 -3,-3c0,0 0,-1 -1,-1c0,0 0,-1 0,-1c1,-1 2.585815,-0.585785 4,-2c0.707092,-0.707092 1,-1 1,-1c0,0 0,-1 0,-2c0,-1 0,-1 0,-2c0,0 -1,-1 -1,-1c-1,-1 -1.69342,-1.458801 -3,-2c-0.923889,-0.38269 -1,0 -2,0l0,0" id="svg_34" stroke-opacity="null" stroke-width="1.5" stroke="#000" fill="#FFAAB8"/>
  <path d="m439.5,294.453125c0,0 -0.48056,3.038727 0,6c0.506531,3.121429 2.493469,5.878571 3,9c0.160187,0.987091 -0.707092,2.292908 0,3c0.707092,0.707092 1.292908,0.292908 2,1c0.707092,0.707092 1.292908,2.292908 2,3c0.707092,0.707092 1.458801,0.693451 2,2c0.765381,1.847748 0.581146,3.418854 -1,5c-1.581146,1.581146 -3,2 -4,3c-1,1 -2,1 -2,2c0,0 0,0 1,0c3,0 5,0 7,0c1,0 2,0 2,0c0,-1 0,-2 0,-3c0,-1 0.38269,-2.076111 0,-3c-0.541199,-1.306549 -1,-3 -1,-4c0,-2 0,-3 0,-4c0,-1 0.292908,-1.292908 1,-2c0.707092,-0.707092 0,-1 0,-1c0,0 0,-1 -1,-2c-1,-1 -2,-2 -4,-3c-2,-1 -3.693451,-1.458801 -5,-2c-0.923889,-0.38269 -1,0 -1,-1c0,0 0,0 0,0c0,-1 0,-1 0,-2l0,0l0,0" id="svg_35" stroke-opacity="null" stroke-width="1.5" stroke="#000" fill="#6D97AB"/>
  <path d="m490.5,243.453125c0,0 0,0 0,1c0,2 -0.306549,2.458801 1,3c1.847748,0.765366 2,1 3,2c1,1 1,1 1,2c0,0 1,0 1,0c0,1 0,1 1,1c0,0 0.076111,-0.38269 1,0c1.306549,0.541199 2,1 3,1c0,0 1,0 1,0c1,0 1,0 2,0c1,0 1,0 2,0c0,0 1,0 1,0c0,-2 0,-3 -1,-5c-1,-2 -2,-3 -3,-4c-1,-1 -0.693451,-2.458801 -2,-3c-0.923889,-0.38269 -2,-1 -2,-1c0,0 -1,0 -1,0c-1,0 -2,0 -2,0c-1,0 -1,0 -2,0c0,0 -0.076111,-0.38269 -1,0c-1.306549,0.541199 -2,1 -2,2l0,0l0,0" id="svg_36" stroke-opacity="null" stroke-width="1.5" stroke="#000" fill="#CE7975"/>
  <path d="m409.5,253.453125c0,1 0,1 0,4c0,4 0,7 0,10c0,1 0,2 0,3c0,0 0,0 1,0c0,0 1,0 2,0c1,0 2,0 3,0c1,0 2,1 3,1c0,0 0,0 0,-1c0,-1 -0.234619,-3.152252 -1,-5c-0.541199,-1.306549 -1.292908,-2.292908 -2,-3c-0.707092,-0.707092 -0.292908,-2.292908 -1,-3c-0.707092,-0.707092 -0.693451,-0.458801 -2,-1c-0.923889,-0.38269 -0.292908,-0.292908 -1,-1c-0.707092,-0.707092 -2,0 -3,0c-2,0 -4,0 -5,-1l-1,0l-1,0l0,0" id="svg_37" stroke-opacity="null" stroke-width="1.5" stroke="#000" fill="#BF7E96"/>
  <path d="m252.5,245.453125c0,0 0,2 0,4c0,3 0,7 0,10c0,3 -0.765366,4.152252 0,6c0.541199,1.306549 1,1 1,2c0,0 0.292892,0.292908 1,1c0.707108,0.707092 2,0 3,0c1,0 2,0 2,0c1,0 1,0 1,0c1,0 1,0 1,0c1,0 1,0 1,0c1,-2 2.486267,-3.823761 3,-6c0.68927,-2.919739 1,-4 1,-5c0,-1 0,-1 0,-1c0,-1 0,-1 0,-2c0,0 -1.186005,-0.692551 -3,-2c-1.147278,-0.826904 -2.693451,-2.458801 -4,-3c-0.923889,-0.38269 -2.292908,-0.292892 -3,-1c-0.707108,-0.707108 -1,-1 -2,-2c0,0 0,0 0,0l-1,0l0,0l0,-1" id="svg_38" stroke-opacity="null" stroke-width="1.5" stroke="#000" fill="#5B9BA2"/>
  <path d="m166.5,268.453125c0,0 0,0 0,1c0,3 -0.459503,5.053497 0,7c0.513748,2.176239 0.234634,3.152252 1,5c0.541199,1.306549 2,2 2,2c0,1 0,1 1,1c0,0 0.852737,-0.173096 2,-1c1.813995,-1.307465 2,-1 2,-2c0,0 0.707108,-1.292908 0,-2c-0.707108,-0.707092 -1.292892,-0.292908 -2,-1c-0.707108,-0.707092 -1,-1 -1,-1c0,0 0,-1 0,-1c-1,0 -2,0 -4,0c0,0 -1,-1 -1,-1c0,-1 0,-1 0,-2c0,0 0,-1 0,-1l0,0" id="svg_39" stroke-opacity="null" stroke-width="1.5" stroke="#000" fill="#529D94"/>
  <path d="m93.5,196.453125c0,0 0,2 0,5c0,2 1,5 1,7c0,0 1,1 1,2c0,0 1.053505,0.540497 3,1c2.176254,0.513748 4.823746,2.486252 7,3c1.946495,0.459503 3,0 4,1c0,0 0.458801,0.306564 1,-1c0.382683,-0.923874 0,-5 0,-8c0,-3 0.382683,-5.076126 0,-6c-0.541199,-1.306564 -2.053505,-0.540497 -4,-1c-2.176254,-0.513748 -3,-1 -5,-1c0,0 -1,0 -1,-1c0,0 -1,0 -1,0c-1,0 -1,0 -1,0c-1,0 -2,0 -2,0c-1,0 -1,0 -2,0c0,0 -1,0 -1,0l0,0l0,0l-1,0" id="svg_40" fill-opacity="null" stroke-opacity="null" stroke-width="1.5" stroke="#000" fill="#5B9BA2"/>
  <path d="m216.5,177.453125c0,0 0,2 1,4c1,2 2,4 3,4c0,0 0,1 0,1c1,0 1,0 1,0c0,0 1,0 1,0c0,0 1,0 1,0c0,0 1,0 1,0c1,-1 2,-1 2,-1c1,-1 1,-1 1,-1c1,0 0.61731,-0.076126 1,-1c0.541199,-1.306564 1,-2 1,-3c0,-1 0,-2 0,-3c0,-1 0,-1 0,-1c-1,-1 -1.292892,-0.292892 -2,-1c-0.707108,-0.707108 -1,-1 -1,-1c0,0 0,0 -1,0c0,0 0,0 0,0c-1,0 -1,0 -2,0c-1,0 -2,0 -4,0c-2,0 -3,0 -4,0l0,0" id="svg_41" stroke-opacity="null" stroke-width="1.5" stroke="#000" fill="#FFB27C"/>
  <path d="m60.5,343.453125c0,0 0.173096,1.852722 1,3c1.307453,1.813995 2.224205,4.902832 3,7c1.430496,3.867004 1.486259,6.823761 2,9c0.229752,0.973236 0,2 0,2c0,0 1,0 1,0c0,0 0.152245,0.765381 2,0c1.306564,-0.541199 3,-1 5,-1c1,0 1,0 2,0c0,0 0,-1 0,-2c0,-1 -0.458801,-2.693451 -1,-4c-0.765366,-1.847748 0.414215,-3.585785 -1,-5c-0.707108,-0.707092 -2,-2 -2,-2c0,0 0,-1 -1,-1c0,0 0,0 -1,0c0,0 -1,0 -2,0c-1,0 -2,0 -3,0c-1,0 -1,0 -2,0c0,0 -0.292892,0.707092 -1,0c-0.707108,-0.707092 0,-1 0,-2c0,0 0,0 0,0l0,0l0,-1l0,0" id="svg_42" stroke-opacity="null" stroke-width="1.5" stroke="#000" fill="#EDB6DC"/>
  <path d="m156.5,379.453125c0,0 -0.307449,3.186005 1,5c0.826904,1.147278 2,2 3,2c0,0 0,0 1,0c1,0 3.418854,-0.418854 5,-2c1.581146,-1.581146 2,-4 2,-5c0,-2 0.38269,-4.076111 0,-5c-0.541199,-1.306549 -2,-2 -4,-3c-2,-1 -3,-1 -4,-1c0,0 -2,0 -3,0c-1,0 -2,0 -3,1c0,0 0,0 -1,1c0,0 0,1 0,2c0,1 0,1 0,2c0,0 -0.707108,1.292908 0,2c0.707108,0.707092 1,1 1,1c0,0 0,0 1,0l0,0l1,0" id="svg_43" stroke-opacity="null" stroke-width="1.5" stroke="#000" fill="#6D97AB"/>
  <path d="m220.5,358.453125c1,0 3.014984,-0.244354 5,0c4.092209,0.503784 5,1 6,1c0,0 0,0 0,0c1,0 2.486252,0.176239 3,-2c0.459503,-1.946503 1,-4 1,-6c0,-1 -0.693436,-3.458801 -2,-4c-1.847763,-0.765381 -2.823746,-1.486267 -5,-2c-0.973251,-0.229767 -4,0 -4,0c-1,0 -2.076126,0.61731 -3,1c-2.613129,1.082397 -3,3 -3,4c0,1 0,1 0,2c0,0 0,1 0,2c0,0 0,0 0,0c0,1 0,1 0,1c0,0 0,0 1,0c0,0 0,0 1,0c0,0 2,1 3,1c1,0 2,0 3,0l0,0" id="svg_44" stroke-opacity="null" stroke-width="1.5" stroke="#000" fill="#EEFF9F"/>
  <path d="m320.5,326.453125c0,0 1.186005,-0.307465 3,1c1.147278,0.826904 2,2 2,3c0,0 0,0 0,0c0,0 1,0 1,0c2,0 3.053497,-0.540497 5,-1c2.176239,-0.513733 4,-1 5,-2c0,0 0,0 0,0c-1,1 -2.693451,1.458801 -4,2c-0.923889,0.38269 -1,0 -1,0c0,-1 0.458801,-1.693451 1,-3c0.765381,-1.847748 0.292908,-2.292908 1,-3c0.707092,-0.707092 0,-1 0,-2c0,0 0,0 0,0c0,0 -0.292908,-0.292908 -1,-1c-0.707092,-0.707092 -1,0 -2,0c0,0 -1.292908,-0.707092 -2,0c-0.707092,0.707092 -1,1 -1,1c-1,1 -1.292908,1.292908 -2,2c-0.707092,0.707092 -1,0 -1,0c0,0 0,1 0,1l0,1" id="svg_45" stroke-opacity="null" stroke-width="1.5" stroke="#000" fill="#A0D58A"/>
  <path d="m389.5,314.453125c0,1 0,3 0,5c0,3 0.458801,4.693451 1,6c0.765381,1.847748 0,2 0,2c0,0 0,1 0,1c0,0 -1.076111,0.61731 -2,1c-1.306549,0.541199 -2,1 -2,2c0,0 0,0 0,1c0,0 0,0 1,0c1,0 2,0 4,0c1,0 2,0 2,0c1,0 1,0 1,0c0,0 0.707092,-0.292908 0,-1c-0.707092,-0.707092 -2,-1 -3,-2c-1,-1 -2.076111,-1.61731 -3,-2c-1.306549,-0.541199 -1,-1 -1,-1c0,0 0,-1 1,-1c0,0 2,-1 2,-1c1,0 0.292908,-0.292908 1,-1c0.707092,-0.707092 1,0 1,-1c0,0 0,0 0,-1l0,0" id="svg_46" fill-opacity="null" stroke-opacity="null" stroke-width="1.5" stroke="#000" fill="none"/>
  <path d="m369.5,267.453125c0,1 0,2 0,5c0,1 0,3 0,3c0,1 0,1 0,1c0,0 1,0 1,1c0,0 0,0 0,0c0,0 0,1 0,1c0,0 0,0 0,1c0,0 0.292908,0.292908 1,1c0.707092,0.707092 1,1 1,1c0,1 1,1 1,1c1,1 1,1 1,1c1,0 1,0 1,0c0,0 0,0 1,0c0,0 0.458801,0.306549 1,-1c0.38269,-0.923889 1,-2 1,-3c0,-1 0,-2 0,-2c0,0 0,0 0,-1c0,0 -1,-1 -1,-1c0,-1 -1.076111,-0.61731 -2,-1c-1.306549,-0.541199 -1.292908,-1.292908 -2,-2c-0.707092,-0.707092 -1.076111,-0.61731 -2,-1c-1.306549,-0.541199 -2,-1 -3,-1c0,0 0,0 0,0l-1,0" id="svg_47" stroke-opacity="null" stroke-width="1.5" stroke="#000" fill="#EEFF9F"/>
  <path d="m543.5,251.453125c0,0 0,1 0,3c0,2 -0.765381,5.152252 0,7c0.541199,1.306549 1,2 1,2c0,0 0,1 1,1c0,0 0,1 0,1c0,0 1,0 1,0c0,1 1,1 1,1c1,0 1.292908,0.292908 2,1c0.707092,0.707092 1,0 2,0c0,0 0,0 0,0c1,-1 1,-3 1,-4c0,-1 -0.61731,-2.076111 -1,-3c-0.541199,-1.306549 -1,-2 -1,-2c0,-1 -1,-1 -1,-1c0,0 -0.292908,0.707092 -1,0c-0.707092,-0.707092 -1.292908,-1.292908 -2,-2c-0.707092,-0.707108 -2,0 -2,0c-1,0 -1,-1 -2,-1l0,0l0,-1" id="svg_48" stroke-opacity="null" stroke-width="1.5" stroke="#000" fill="#B6C7EA"/>
  <path d="m536.5,203.453125c0,0 0,0 0,2c0,1 0,3 0,4c0,0 0,1 0,1c-1,1 -1,2 -2,3c-1,1 -1,1 -1,2c0,1 1.159302,2.610641 4,4c3.238892,1.584106 6.309998,2.337494 9,4c1.203003,0.7435 1.292908,0.292892 2,1c0.707092,0.707108 -0.076111,0.38269 -1,0c-3.919678,-1.623581 -5.144287,-5.934143 -6,-8c-1.210144,-2.92157 -0.948547,-5.298691 -2,-7c-1.175598,-1.902115 -2.458801,-1.693436 -3,-3c-0.38269,-0.923874 0,-1 0,-1c0,-1 0,-1 0,-2c0,0 1,-1 2,-2l1,0l1,-1l1,0" id="svg_49" stroke-opacity="null" stroke-width="1.5" stroke="#000" fill="#FFFF91"/>
  <path d="m377.5,200.453125c0,1 -0.147278,1.173096 1,2c1.813995,1.307449 3.823761,2.486252 6,3c1.946503,0.459503 2,0 3,0c0,0 1,0 1,0c0,0 1,0 1,0c0,0 0,0 0,0c0,-1 0.307465,-2.186005 -1,-4c-0.826904,-1.147263 -1.852722,-3.173096 -3,-4c-1.813995,-1.307449 -3,-2 -4,-2c0,0 0,-1 0,-1c0,0 0,0 0,-1c0,0 0,0 -1,0c0,0 -1,1 -1,2c0,1 -1,2 -1,2c0,1 0,2 0,2c-1,0 -1,0 -1,0l0,1l0,0l0,0" id="svg_50" stroke-opacity="null" stroke-width="1.5" stroke="#000" fill="#C97A86"/>
  <path d="m325.5,216.453125c0,1 0,1 0,3c0,2 0,4 0,6c0,2 0,2 0,3c0,1 0,1 0,2c0,0 1,0 1,0c0,0 1,0 1,0c1,1 3.076111,0.61731 4,1c1.306549,0.541199 2,1 2,1c0,-1 0.707092,-2.292892 0,-3c-0.707092,-0.707108 -1,-1 -2,-2c-1,-1 -1.292908,-1.292892 -2,-2c-0.707092,-0.707108 -1.292908,0.707108 -2,0c-0.707092,-0.707108 0,-1 0,-1c0,0 -1,0 -1,0c0,-1 -1,-1 -1,-2l0,0l0,-1l0,0" id="svg_51" stroke-opacity="null" stroke-width="1.5" stroke="#000" fill="#FFAFCC"/>
  <path d="m477.5,365.453125c0,1 0,2 0,3c0,2 1.292908,3.292908 2,4c0.707092,0.707092 1,2 1,2c0,0 1,0 1,1c0,0 1,0 1,0c1,0 1,0 2,0c1,0 2,0 3,0c1,0 2,0 2,0c0,0 0,0 1,-2c0,0 1,-2 1,-4c0,-1 -1.21167,-2.714111 -4,-5c-1.093658,-0.896606 -2,-2 -2,-2c-1,0 -1,0 -2,0c-1,0 -1,0 -2,1c0,0 0,0 -1,0c0,0 -1,1 -1,1l0,0l-1,1l0,0" id="svg_52" stroke-opacity="null" stroke-width="1.5" stroke="#000" fill="#7DD8B5"/>
  <path d="m549.5,366.453125c0,0 0,1 0,3c0,2 0,3 0,4c0,1 0,1 0,1c0,1 0,1 0,2c0,0 0,1 0,1c0,0 0,0 0,1c0,0 0,1 0,1c1,0 1.69342,1.458801 3,2c0.923889,0.38269 1,0 1,0c1,0 1,0 1,0c0,0 1,0 1,0c0,0 1,0 1,0c1,-1 1,-2 1,-2c0,0 0,0 0,-1c0,0 -1,-1 -1,-1c-1,-1 -1,-1 -2,-2c-1,-1 -1.486267,-0.823761 -2,-3c-0.229736,-0.973236 0,-2 0,-2c0,0 0,-1 -1,-1l0,0" id="svg_53" stroke-opacity="null" stroke-width="1.5" stroke="#000" fill="#9ACEE6"/>
  <path d="m570.5,277.453125c-1,0 -1,0 -1,0c-1,1 -0.69342,1.458801 -2,2c-1.847778,0.765381 -3.934143,1.144287 -6,2c-2.92157,1.210144 -4.418884,2.418854 -6,4c-1.581116,1.581146 -3.69342,3.458801 -5,4c-0.923889,0.38269 -1,1 -1,1c0,0 0,1 0,1c2,0 2.705444,1.346191 5,3c1.813965,1.307465 4,2 6,3c2,1 3.292908,1.292908 4,2c0.707092,0.707092 0,1 0,1c-1,0 -1,-1 -1,-2c0,-4 0,-7 0,-10c0,-3 0,-5 0,-6l0,0l0,-1l0,0" id="svg_54" stroke-opacity="null" stroke-width="1.5" stroke="#000" fill="#AF84A3"/>
  <path d="m304.5,365.453125c0,1 0,2 0,4c0,1 0,2 1,3c1,1 1,1 2,2c0,0 0,0 0,1c0,0 0,0 0,0c1,0 2,1 4,1c2,0 4,1 4,1c1,0 2,0 2,0c0,0 -0.210144,-3.07843 1,-6c0.855713,-2.065857 1,-4 1,-5c0,-1 0,-2 0,-2c0,0 -1,0 -1,0c-1,0 -1,0 -2,0c0,0 0,0 -1,0c-1,0 -1,0 -2,0c0,0 -1,0 -1,0c-1,0 -1.292908,-0.707092 -2,0c-0.707092,0.707092 0,1 -1,1l0,0l-1,0" id="svg_55" stroke-opacity="null" stroke-width="1.5" stroke="#000" fill="#CBFFFF"/>
  <path d="m119.5,325.453125c0,0 -0.382683,1.076111 0,2c1.08239,2.613129 3.418861,3.418854 5,5c1.581139,1.581146 0.097885,2.824432 2,4c0.850655,0.525726 1,1 1,1c0,1 0,1 0,2c0,0 0,0 0,0c0,1 0,2 0,4c0,1 -0.382683,2.076111 0,3c0.541199,1.306549 1.186005,0.692535 3,2c1.147263,0.826904 1,1 2,2c0,0 1,0 1,0c0,-1 -0.229752,-2.026764 0,-3c0.513748,-2.176239 1,-3 1,-4c0,0 0.306564,-1.458801 -1,-2c-0.923874,-0.38269 -1,-1 -1,-1c0,-1 0,-1 0,-1c1,-1 0.693436,-1.458801 2,-2c0.923874,-0.38269 1,0 1,0c0,0 -0.292892,-0.292908 -1,-1c-0.707108,-0.707092 -1.61731,-2.076111 -2,-3c-0.541199,-1.306549 -1,-2 -2,-3c0,0 -0.292892,-1.292908 -1,-2c-0.707108,-0.707092 -0.292892,-2.292908 -1,-3c-0.707108,-0.707092 -1,0 -1,0c0,0 -1,0 -1,0c-1,0 -2,0 -2,0c0,0 -1,0 -1,0c-1,0 -2,0 -3,0l0,1l0,0" id="svg_56" stroke-opacity="null" stroke-width="1.5" stroke="#000" fill="#884D58"/>
  <path d="m46.5,143.453125c0,0 0,1 0,2c0,2 0,3 0,4c0,1 0,2 0,3c0,1 0,2 0,3c0,1 0,2 0,4c0,0 0,1 1,1c0,0 0.693436,0.458801 2,1c1.847759,0.765366 4,0 5,1c0,0 1,0 1,0c0,-1 0,-2 -1,-3c0,0 0,-1 0,-1c0,0 0,-1 0,-1c0,-1 0,-2 -1,-3c0,0 0.707108,-1.292892 0,-2c-0.707108,-0.707108 -1.693436,-1.458801 -3,-2c-0.923878,-0.38269 -2.076122,-0.61731 -3,-1c-1.306564,-0.541199 -3,-1 -4,-1c-1,0 -2,0 -2,0l0,0l0,-1" id="svg_57" stroke-opacity="null" stroke-width="1.5" stroke="#000" fill="#B6C7EA"/>
 </g>
</svg>