<svg width="117" height="132" xmlns="http://www.w3.org/2000/svg">
 <!-- Created with Method Draw - http://github.com/duopixel/Method-Draw/ -->
 <g>
  <title>background</title>
  <rect fill="none" id="canvas_background" height="134" width="119" y="-1" x="-1"/>
  <g display="none" overflow="visible" y="0" x="0" height="100%" width="100%" id="canvasGrid">
   <rect fill="url(#gridpattern)" stroke-width="0" y="0" x="0" height="100%" width="100%"/>
  </g>
 </g>
 <g>
  <title>Layer 1</title>
  <path d="m8.75,56.75c0,0 0,3 -1,5c-1,2 -1,5 -1,6c0,1 0,2 0,2c0,1 -0.707108,1.292892 0,2c0.707108,0.707108 2,0 3,0c1,0 1.292892,0.707108 2,0c0.707108,-0.707108 1,-2 2,-3c1,-1 1.292892,-1.292892 2,-2c0.707108,-0.707108 0,-1 0,-2c0,-1 0.707108,-1.292892 0,-2c-0.707108,-0.707108 -2.026749,-0.770248 -3,-1c-2.176254,-0.513741 -3,-1 -4,-1c-1,0 -2,0 -2,0c-1,0 -1,0 -1,0c0,-1 -0.38269,-1.076118 0,-2c0.541199,-1.306564 1,-1 2,-2c0,0 1,-1 1,-1l1,0l0,0" id="svg_1" stroke-width="1.5" stroke="#000" fill="#0fffff"/>
  <path d="m28.75,57.75c0,0 0,1 0,2c0,0 1,0 1,0c0,0 1,0 2,0c1,0 2,0 3,0c1,0 2,0 3,0c1,0 1,0 2,-1c0,0 0.292892,-0.292892 1,-1c0.707108,-0.707108 1,-1 1,-2c0,-1 0.307449,-2.186005 -1,-4c-0.826904,-1.14727 -1.693436,-1.458801 -3,-2c-0.923874,-0.382683 -2,0 -3,0c-2,0 -2,0 -3,0c0,0 0,0 -1,1c0,0 0,0 -1,1c0,0 0,0 0,0c0,1 0,1 0,1c0,0 0,0 0,1c0,0 0,0 0,0c0,1 0,1 0,1c0,0 0,0 0,0c1,0 1,0 1,0c1,0 1,0 1,0c1,0 1,0 1,0c1,0 1,0 1,1c0,0 0,0 0,1c0,0 0,0 0,0c0,1 0,1 0,1l-1,0" id="svg_2" stroke-width="1.5" stroke="#000" fill="#7f3f00"/>
  <path d="m21.75,76.75c0,0 -0.38269,2.076126 0,3c0.541199,1.306564 2.538696,2.60643 5,4c3.587921,2.031448 5,2 5,2c1,0 1,0 1,0c1,0 1,0 1,0c0,0 1,0 1,0c0,-1 0,-2 1,-3c0,0 0,-2 0,-3c0,-1 0,-2 0,-3c0,0 -1,-1 -1,-1c-1,0 -2,-1 -3,-1c-1,0 -1,0 -2,-1c0,0 0,0 0,0c-1,-1 -1,-1 -2,-1c-1,0 -1.292892,-0.292892 -2,-1c-0.707108,-0.707108 -1,-1 -1,-2c0,0 0,-1 0,-1c0,-1 0,-1 0,-1c-1,0 -1,0 -2,1c0,0 0,1 0,1c0,0 0,1 0,1l0,0l0,0l0,0" id="svg_3" stroke-width="1.5" stroke="#000" fill="#e0e018"/>
  <path d="m13.75,17.75c0,0 0,2 0,3c0,1 0.144287,1.934143 1,4c1.210144,2.921562 1.486252,4.823746 2,7c0.229752,0.973251 0,2 0,2c1,1 1,1 1,2c0,0 1,0 1,0c0,0 0,0 1,0c0,0 1,0 1,0c1,0 2,0 2,0c1,0 1,0 1,0c0,0 1,0 1,0c0,0 0,0 0,-1c0,0 0,0 0,0c0,-1 1,-1 1,-1c0,-1 0,-1 1,-1c0,0 0,0 0,0c1,0 1,0 2,0c0,0 1,0 1,0c1,0 0,1 1,1c1,0 0.306564,-2.458801 -1,-3c-0.923874,-0.382683 -2.152237,-0.234634 -4,-1c-1.306564,-0.541199 -1.292892,-0.292892 -2,-1c-0.707108,-0.707108 -1,-1 -1,-2c0,0 0,0 0,-1c0,-1 1,-2 1,-2c1,-1 2,-2 2,-2c0,-1 1,-1 1,-1c0,0 0,-1 0,-1c0,0 0,0 -2,0c-1,0 -2.076126,-0.617317 -3,-1c-1.306564,-0.541199 -2,-2 -2,-2c-1,0 -1,0 -1,-1c0,0 0,0 0,0c-1,0 -1,0 -1,0c0,0 -1,0 -1,0c0,0 0.707108,0.292892 0,1c-0.707108,0.707108 -0.292892,0.292892 -1,1c-0.707108,0.707108 -1,0 -1,0l0,0l0,0l0,1" id="svg_4" stroke-width="1.5" stroke="#000" fill="#00bf00"/>
  <path d="m54.75,56.75c0,0 0,1 0,1c0,1 0,1 0,1c-1,1 -1,1 -1,2c0,0 0,1 0,2c0,0 1,1 1,1c0,1 0,2 1,2c0,0 1,1 1,1c0,1 0,1 0,2c0,1 0,2 0,3c0,1 0,2 0,3c0,1 0,1 0,1c0,0 0,0 0,1c0,0 0.693436,0.458801 2,1c1.847763,0.765366 3.053497,-0.459503 5,0c2.176254,0.513748 3,1 4,1c1,0 1,0 2,0c0,0 0,0 0,0c1,0 1,-1 1,-1c0,-1 -0.917603,-1.386871 -2,-4c-0.765366,-1.847763 -1,-3 -2,-4c-1,-1 -1,-1 -2,-2c0,0 0,0 0,0c0,0 0.707108,-0.292892 0,-1c-0.707108,-0.707108 -2,0 -2,0c-1,0 -1,-1 -1,-1c-1,0 -1,-1 -1,-1c0,-1 -1,-1 -1,-1c0,0 0,-1 -1,-1c0,0 0,-1 0,-1c-1,-1 -1,-1 -1,-1c0,0 0,-1 0,-1c0,0 -1,0 -1,-1c0,0 -0.292892,0.707108 -1,0c-0.707108,-0.707108 0,-1 0,-1l0,0" id="svg_5" stroke-width="1.5" stroke="#000" fill="#ff0000"/>
  <path d="m43.75,94.75c0,0 0,1 0,3c0,0 0,1 0,2c0,0 0,1 0,1c0,0 0,1 1,1c0,0 0,0 1,0c0,0 1,0 1,0c1,0 2,0 2,0c1,0 1,0 1,0c1,0 1,0 1,0c0,0 0,0 0,1c0,0 0,0 0,1c0,0 1,1 1,1c0,1 0,1 0,1c0,1 0.458801,0.693436 1,2c0.38269,0.923874 0,1 1,1c0,0 0,0 0,0c1,-1 1,-1 1,-2c0,0 1,-1 1,-2c0,0 0,0 0,-1c0,0 0,-1 0,-1c0,-1 0,-1 0,-1c0,-1 0,-1 0,-1c0,0 0,-1 0,-1c0,-1 0,-1 0,-2c0,0 0,0 0,0c-1,-1 -1,-1 -1,-1c0,-1 0,-1 0,-1c-1,-1 -1,-1 -1,-1c0,0 0,-1 0,-1c0,0 0,-1 0,-1c-1,-1 -1,-1 -1,-1c-1,0 -1,-1 -2,-1c0,0 -1,0 -1,0c-1,0 -1,0 -1,0c-1,0 -1,0 -1,0c-1,0 -1,0 -1,1c0,0 0,0 -1,0c0,0 0,0 0,1l0,0l0,0l-1,0" id="svg_6" stroke-width="1.5" stroke="#000" fill="#ff7f00"/>
  <path d="m53.75,20.75c0,0 0,1 0,2c0,1 0,2 0,3c0,1 0,2 0,3c0,0 1,1 1,1c0,0 1,0 1,0c0,1 0,1 1,1c0,0 0,0 1,0c0,0 1,1 2,1c0,0 1,1 1,1c0,1 0,1 0,2c0,0 0,1 0,1c0,0 0,1 0,1c0,0 1,0 1,0c1,0 1,0 1,0c0,0 1,0 1,-1c0,0 1,-1 1,-1c0,0 0.292892,-0.292892 1,-1c0.707108,-0.707108 0,-1 0,-1c0,-1 0,-2 0,-2c0,-1 0,-1 0,-2c0,0 0,-1 0,-1c0,0 -1,-1 -1,-1c-1,0 -1,-1 -2,-1c0,0 -2,-1 -2,-1c0,-1 0,-1 -1,-2c0,0 0,0 0,-1c0,0 0,0 -1,0c0,0 -1,0 -1,0c-1,0 -1,0 -1,0c0,0 0,0 -1,0c0,0 0,0 -1,0c0,0 0,0 -1,0c0,0 0,0 0,0c-1,0 -1,1 -1,1l0,0l0,0" id="svg_7" stroke-width="1.5" stroke="#000" fill="#ff56ff"/>
  <path d="m1.75,39.75c0,0 0,1 0,1c0,1 0,1 0,1c-1,1 -1,1 -1,1c0,0 0,1 0,1c0,0 0,0 0,1c0,0 0,0 0,1c0,0 1,0 1,0c1,1 1.292892,1.292892 2,2c0.707108,0.707108 1,1 2,1c0,0 -0.707108,0.292892 0,1c0.707108,0.707108 1,0 1,0c0,0 0,0 1,0c0,0 0,0 1,-1c0,0 0,-1 1,-1c0,0 0,-1 0,-1c0,-1 1,-1 1,-1c0,-1 0,-1 0,-1c0,-1 0,-1 0,-2c0,-1 0,-1 0,-1c0,0 0,0 0,-1c0,0 0,0 0,-1c0,0 0,0 -1,0c0,0 0,-1 0,-1c-1,0 -1,0 -1,0c-1,0 -1,0 -1,0c-1,0 -1,0 -1,0c0,0 -1,0 -1,-1c0,0 0,0 0,0c-1,0 -1,0 -1,0l-1,0" id="svg_8" stroke-width="1.5" stroke="#000" fill="#00ff00"/>
  <path d="m65.75,53.75c0,1 0,2 0,4c0,0 0.076126,1.617317 1,2c1.306564,0.541199 1,2 2,3c1,1 1,1 2,1c0,0 1,0 1,0c1,0 2,0 4,0c1,0 2,0 3,0c0,0 1,-1 1,-1c0,0 1,0 1,0c0,0 -0.38269,-1.076118 0,-2c0.541199,-1.306564 1,-2 1,-2c0,-1 -0.173096,-0.85273 -1,-2c-1.307449,-1.813995 -1.292892,-2.292892 -2,-3c-0.707108,-0.707108 -1.292892,-0.292892 -2,-1c-0.707108,-0.707108 -1,-1 -2,-1c-1,0 -2,0 -2,0c0,0 0,-1 0,-1c0,0 -0.306564,-1.458801 1,-2c0.923874,-0.382683 1,0 1,0c1,-1 1,-1 1,-1c1,0 1,0 1,0c-1,0 -2,0 -3,0c-1,0 -2.292892,-0.707108 -3,0c-0.707108,0.707108 -1,1 -1,1l0,0l-1,0" id="svg_9" stroke-width="1.5" stroke="#000" fill="#2ca07c"/>
  <path d="m38.75,31.75c0,0 0,1 0,2c0,1 0,2 1,3c0,0 1,1 2,1c1,0 1.292892,0.292892 2,1c0.707108,0.707108 1,1 1,1c1,0 1,1 1,1c1,0 1,0 1,0c0,1 1,1 1,1c0,1 -0.707108,1.292892 0,2c0.707108,0.707108 1,1 1,1c1,0 1,0 1,0c0,0 0.292892,0.707108 1,0c0.707108,-0.707108 0,-1 0,-1c0,0 0,-1 0,-2c0,-1 0,-2 0,-2c0,-1 0,-2 0,-2c0,-1 0,-1 0,-1c0,-1 0,-1 0,-1c0,0 0,-1 0,-1c0,-1 -1.292892,-0.292892 -2,-1c-0.707108,-0.707108 -0.292892,-0.292892 -1,-1c-0.707108,-0.707108 0.707108,-1.292892 0,-2c-0.707108,-0.707108 -1,-1 -1,-1c-1,0 -1,0 -2,0c-2,0 -2,0 -4,0c0,0 -1,0 -2,0c0,0 -1,0 -1,0l-1,0l0,0" id="svg_10" stroke-width="1.5" stroke="#000" fill="#ff0000"/>
  <path d="m1.75,82.75c0,0 0,0 0,1c0,0 0,1 0,2c0,0 0,1 0,2c0,1 -0.38269,2.076126 0,3c0.541199,1.306564 2,1 3,2c1,1 2.458801,0.693436 3,2c0.38269,0.923874 1,1 2,2c1,1 1,2 2,3c0,0 0,1 0,1c0,1 0,1 1,1c0,0 0,0 1,-1c0,0 0,-1 0,-1c1,-2 1,-3 1,-5c0,-2 0,-4 0,-5c0,-1 0,-2 0,-3c0,0 0,-1 0,-1c0,0 0,0 -1,0c0,0 0.707108,-0.292892 0,-1c-0.707108,-0.707108 -1,0 -2,0c-1,0 -1,0 -2,0c0,0 -1,0 -2,0c0,0 0,0 -1,0c0,0 -1,0 -1,0c-1,0 -1,0 -1,0c0,0 -1,0 -1,0c0,0 -1,0 -2,0c0,0 -1,0 -1,0l0,0l0,0" id="svg_11" stroke-width="1.5" stroke="#000" fill="#56ffaa"/>
  <path d="m69.75,92.75c0,0 0,2 0,3c0,2 0,3 0,4c0,0 0,0 0,1c0,0 1,1 1,1c1,0 1.292892,1.292892 2,2c0.707108,0.707108 1,0 1,0c1,0 1,1 1,1c0,0 1,0 1,0c0,0 0,0 0,0c1,0 1,0 1,0c0,0 0,0 1,0c0,0 0,0 0,0c0,-1 1,-3 1,-5c0,-1 1,-3 1,-3c0,-1 0,-1 0,-1c0,0 -1,0 -1,0c-1,0 -1.292892,-0.292892 -2,-1c-0.707108,-0.707108 -1,-1 -2,-1c-1,0 -1,0 -2,0c0,0 0,0 -1,-1c0,0 0,0 -1,0l0,0l0,0" id="svg_12" stroke-width="1.5" stroke="#000" fill="#ffaa56"/>
  <path d="m14.75,110.75c0,1 0,2 0,3c0,1 0.292892,1.292892 1,2c0.707108,0.707108 1,0 2,0c1,0 1,0 2,0c1,0 2,0 3,0c1,0 0.693436,0.458801 2,1c0.923874,0.38269 1,0 2,0c1,0 1,1 1,1c0,0 1,0 1,0c0,0 0,0 0,0c1,-1 1,-1 1,-2c0,-1 1,-2 1,-3c0,-1 0,-2 0,-2c0,-1 -1.292892,-1.292892 -2,-2c-0.707108,-0.707108 -1,-1 -1,-1c-1,0 -1,0 -2,0c0,0 0,-1 0,-1c-1,0 -1,0 -2,0c0,0 -1,0 -1,0c0,0 -1,0 -1,0c-1,0 -1,0 -1,0c-1,1 -1,1 -2,1c0,0 -1,0 -1,0c0,0 -1,0 -1,0c-1,0 -1,0 -1,0c-1,1 -1,1 -2,1l0,0l0,0l-1,0" id="svg_13" stroke-width="1.5" stroke="#000" fill="#7f00ff"/>
  <path d="m35.75,2.75c0,0 -0.38269,1.076118 0,2c0.541199,1.306564 1,2 2,3c0,0 0,1 1,1c0,0 0,1 1,1c0,0 0,0 0,0c1,0 0.292892,0.292892 1,1c0.707108,0.707108 1.486252,1.823746 2,4c0.689255,2.919746 0,6 0,7c0,0 0,1 1,1c0,0 0,0 0,0c1,0 1.458801,0.306564 2,-1c0.38269,-0.923882 1,-2 1,-2c1,-1 1,-2 1,-2c0,0 0,-2 0,-3c0,-1 0,-3 0,-4c0,-1 0.707108,-1.292892 0,-2c-0.707108,-0.707108 -2,-2 -2,-2c-1,-1 -2,-1 -3,-1c-1,0 -1.292892,-0.292892 -2,-1c-0.707108,-0.707108 -0.292892,-0.292892 -1,-1c-0.707108,-0.707108 -1,0 -1,0c-1,0 -1,0 -1,0c-1,0 -1,-1 -1,-1c-1,0 -1,0 -1,0l0,-1l0,0l0,0" id="svg_14" stroke-width="1.5" stroke="#000" fill="#56ffff"/>
  <path d="m83.75,30.75c0,1 0,2 0,2c0,1 0,1 0,2c0,1 1.053497,0.540497 3,1c2.176254,0.513741 3.823746,2.486259 6,3c0.973251,0.229752 2,1 3,2c0,0 0,1 0,1c0,1 0,1 0,2c0,0 0,0 0,1c0,0 0,0 0,1c0,0 1.152252,-0.765366 3,0c1.306549,0.541199 4,2 5,3c1,1 2,1 2,1c0,0 0.38269,-0.076118 0,-1c-0.541199,-1.306564 -1.486267,-1.823746 -2,-4c-0.229767,-0.973251 -1,-2 -1,-3c0,-1 0,-1 -1,-1c0,0 0,-1 0,-1c0,0 -1,-1 -1,-1c0,0 0,0 0,-1c0,0 -1,0 -1,0c-1,-1 -2,-1 -3,-1c-1,0 -2,0 -2,0c-1,-1 -2,-1 -2,-1c-1,0 -2,0 -2,0c0,-1 0,-1 0,-1c0,0 0,-1 0,-1c0,0 0,-1 0,-2c0,0 0,-1 -1,-1c0,0 -1,0 -1,0c0,0 -1,0 -1,0c0,0 -1,0 -1,0c0,0 -1,0 -1,1c0,0 -0.076126,-0.382683 -1,0c-1.306564,0.541199 -1,1 -2,1l0,0l0,0l-1,0" id="svg_15" stroke-width="1.5" stroke="#000" fill="#56aaff"/>
  <path d="m89.75,76.75c0,0 0,1 0,2c0,1 0,1 0,2c0,0 0.186005,-0.307449 2,1c1.147263,0.826904 2.026749,1.770248 3,2c2.176239,0.513748 3.292908,1.292892 4,2c1.414215,1.414215 2,3 2,3c0,1 1,1 1,1c0,0 0,1 0,1c0,0 0,0 0,0c0,0 1,0 1,0c0,0 1,-1 1,-1c1,-1 1,-2 1,-3c0,-2 0,-3 0,-4c0,-1 0.707092,-3.292892 0,-4c-0.707092,-0.707108 -2.292908,-0.292892 -3,-1c-0.707092,-0.707108 -1,-1 -1,-1c-1,0 -1,0 -1,0c-1,-1 -1,-1 -1,-1c-1,-1 -1,-1 -1,-1c-1,0 -2,0 -2,0c-1,0 -2,0 -3,0c-1,0 -3.026749,-0.229752 -4,0c-2.176254,0.513748 -3,1 -3,1c0,1 -1,1 -1,1l0,0" id="svg_16" stroke-width="1.5" stroke="#000" fill="#ffff4c"/>
  <path d="m70.75,7.75c0,0 0.234634,1.152245 1,3c0.541199,1.306564 1.458801,2.693436 2,4c0.38269,0.923882 1,1 1,2c0,0 1.292892,1.292892 2,2c0.707108,0.707108 0,1 0,1c1,0 1,0 1,0c1,-1 1,-1 2,-1c0,0 1,-1 1,-1c1,-1 1,-1 1,-1c0,-1 0,-1 0,-1c0,0 1,-1 1,-2c0,-3 -0.765366,-4.152245 0,-6c0.541199,-1.306564 1,-2 1,-2c0,-1 0,-1 0,-1c0,0 0,0 0,-1c0,0 0.306564,-0.458801 -1,-1c-1.847763,-0.765366 -3.076126,0.382683 -4,0c-1.306564,-0.541199 -2,-1 -3,-1c0,0 -1,0 -2,0c-1,0 -2,-1 -3,-1c-1,0 -2,0 -2,0l-1,0l0,0l0,0" id="svg_17" stroke-width="1.5" stroke="#000" fill="#ff0000"/>
  <path d="m104.75,55.75c0,1 0,1 0,2c0,2 0,3 0,4c0,0 0,1 0,2c0,0 0,1 0,1c0,0 0,1 0,1c0,0 -0.076111,0.61731 -1,1c-1.306549,0.541199 -1,1 -1,2c0,0 0,0 0,1c0,0 0.878571,0.493454 4,1c0.987091,0.160187 2.292908,1.292892 3,2c0.707092,0.707108 2,1 2,1c0,0 1,0 1,0c0,1 0,1 1,1c0,0 0.292908,-0.707108 1,0c0.707092,0.707108 0,1 1,1c0,0 0,0 0,0c0,0 0,-1 0,-1c0,0 0,0 0,-1c0,0 0,0 0,-1c0,0 0,0 0,-1c0,0 0,-1 0,-2c0,0 -0.292908,-0.292892 -1,-1c-0.707092,-0.707108 0,-1 0,-1c0,-1 0,-1 -1,-1c0,0 -1,-1 -1,-1c-1,-1 -1.693451,-1.458801 -3,-2c-0.923889,-0.38269 -2,0 -2,0c-1,0 -1,0 -1,0c-1,0 -1,0 -1,-1c0,0 -1,0 -1,0c0,0 0,0 0,0c-1,0 -1,-1 -1,-1l0,0l0,0" id="svg_18" stroke-width="1.5" stroke="#000" fill="#56ffff"/>
  <path d="m54.75,115.75c0,1 0,1 0,2c0,1 0,2 0,3c0,1 1.852737,2.173096 3,3c1.813995,1.307449 3.152237,1.234634 5,2c1.306564,0.541199 3,2 3,2c1,2 1,2 1,2c0,1 1,1 1,1c0,0 0,0 1,0c1,0 1,0 2,0c0,0 0,0 0,0c0,0 0,-2 0,-3c0,-2 0,-4 0,-5c0,-1 0,-3 0,-4c0,-1 0.765366,-2.152237 0,-4c-0.541199,-1.306564 -1.076126,-1.61731 -2,-2c-1.306564,-0.541199 -1,-1 -2,-1c0,0 -1,0 -2,0c-1,0 -2,0 -3,0c0,0 -1,-1 -1,-1c-1,0 -2,0 -3,0c-1,0 -1,0 -1,0c-1,0 -1,0 -1,0l0,0" id="svg_19" stroke-width="1.5" stroke="#000" fill="#aa56ff"/>
  <path d="m88.75,105.75c0,0 1.076126,0.61731 2,1c1.306564,0.541199 1.823746,2.486252 4,3c0.973251,0.229752 2,0 2,0c0,0 1,0 1,0c0,0 0,0 0,0c1,-1 1,-2 2,-3c0,0 0,0 0,0c0,-1 0,-1 0,-1c1,0 1,0 2,-1c0,0 0,-1 0,-1c0,0 0.306549,-0.458801 -1,-1c-0.923889,-0.38269 -2,-1 -2,-1c-1,-1 -0.693451,-1.458801 -2,-2c-0.923874,-0.38269 -1.292892,-0.292892 -2,-1c-0.707108,-0.707108 -1.076126,-0.61731 -2,-1c-1.306564,-0.541199 -1.292892,-0.292892 -2,-1c-0.707108,-0.707108 0,-1 -1,-1c0,0 0,0 -1,0c0,0 0,0 0,0c-1,0 -1,0 -1,1c0,0 0,1 -1,1c0,0 0,0 0,0c0,1 0,1 0,1c0,0 0,0 0,1c0,0 0,0 0,0c0,1 0,1 0,1c0,0 0,1 0,1c0,0 0,1 0,1c0,0 0,1 0,1c0,0 0,0 0,1c0,0 0,0 0,0c0,0 0,0 0,1c0,0 0,1 1,1c0,0 0,0 0,1l0,0l0,0l0,0" id="svg_20" stroke-width="1.5" stroke="#000" fill="#aaff56"/>
 </g>
</svg>