<?xml version="1.0" standalone="no"?><svg xmlns="http://www.w3.org/2000/svg" viewBox="0 0 1440 320"><path fill="#1f37e8" fill-opacity="0.85" d="M0,128L40,138.7C80,149,160,171,240,202.7C320,235,400,277,480,282.7C560,288,640,256,720,245.3C800,235,880,245,960,224C1040,203,1120,149,1200,128C1280,107,1360,117,1400,122.7L1440,128L1440,320L1400,320C1360,320,1280,320,1200,320C1120,320,1040,320,960,320C880,320,800,320,720,320C640,320,560,320,480,320C400,320,320,320,240,320C160,320,80,320,40,320L0,320Z"></path></svg>